<svg width="20" height="20" viewBox="0 0 20 20" xmlns="http://www.w3.org/2000/svg" xmlns:xlink="http://www.w3.org/1999/xlink"><title>教育版</title><defs><path id="a" d="M0 0h19.76v10.64H0z"/></defs><g fill="none" fill-rule="evenodd"><path d="M0 0h20v20H0z"/><path d="M15.2 7.6v7c-.003.066 0 .133 0 .2 0 1.146-2.328 2.4-4.8 2.4-3.272 0-5.6-1.254-5.6-2.4 0-.067.003-.134.008-.2H4.8v-7h10.4z" fill="#0085DD"/><g transform="translate(0 2)"><mask id="b" fill="#fff"><use xlink:href="#a"/></mask><path stroke="#FFF" stroke-width=".6" fill="#0085DD" mask="url(#b)" transform="rotate(45 9.937 5.32)" d="M6.206 1.789l10.53-3.269-3.268 10.53-10.331 3.07z"/></g><path fill="#0085DD" d="M18 6.913l.8.407v7.48H18z"/></g></svg>